PathFileType	4	(X/Y/Z)	./motion_analysis/DM_ngait_tm_ss1_new.trc
DataRate	CameraRate	NumFrames	NumMarkers	Units	OrigDataRate	OrigDataStartFrame	OrigNumFrames
120	120	4	68	mm	120	0	2097
Frame#	Time	Sternum			Neck			R_Shoulder			L_Shoulder			Xiphoid			Thoracic			R_Asis			L_Asis			R_Psis			L_Psis			Lumbar			R_Elbow			R_ElbowMedial			R_ShoulderAnterior			R_ShoulderPosterior			R_Wrist			R_Radius			R_Ulna			L_Elbow			L_ElbowMedial			L_ShoulderAnterior			L_ShoulderPosterior			L_Wrist			L_Ulna			L_Radius			L_Thigh_Superior			L_Thigh_Inferior			L_Thigh_Lateral			L_Knee_Lateral			L_Knee_Medial			L_Patella			L_Shank_Superior			L_Shank_Inferior			L_Shank_Lateral			L_Ankle_Lateral			L_Ankle_Medial			R_Thigh_Superior			R_Thigh_Inferior			R_Thigh_Lateral			R_Knee_Lateral			R_Knee_Medial			R_Patella			R_Shank_Superior			R_Shank_Inferior			R_Shank_Lateral			R_Ankle_Lateral			RankleMedial			R_Heel			R_Toe			R_Midfoot_Medial			R_Midfoot_Lateral			R_Hindfoot			R_Midfoot_Superior			R_ToeMedial			R_ToeLateral			L_Heel			L_Toe			L_Midfoot_Medial			L_Midfoot_Lateral			L_Hindfoot			L_Midfoot_Superior			L_ToeMedial			L_ToeLateral			Oglobal			Sacral			Xglobal			Yglobal			Zglobal			
		X1	Y1	Z1	X2	Y2	Z2	X3	Y3	Z3	X4	Y4	Z4	X5	Y5	Z5	X6	Y6	Z6	X7	Y7	Z7	X8	Y8	Z8	X9	Y9	Z9	X10	Y10	Z10	X11	Y11	Z11	X12	Y12	Z12	X13	Y13	Z13	X14	Y14	Z14	X15	Y15	Z15	X16	Y16	Z16	X17	Y17	Z17	X18	Y18	Z18	X19	Y19	Z19	X20	Y20	Z20	X21	Y21	Z21	X22	Y22	Z22	X23	Y23	Z23	X24	Y24	Z24	X25	Y25	Z25	X26	Y26	Z26	X27	Y27	Z27	X28	Y28	Z28	X29	Y29	Z29	X30	Y30	Z30	X31	Y31	Z31	X32	Y32	Z32	X33	Y33	Z33	X34	Y34	Z34	X35	Y35	Z35	X36	Y36	Z36	X37	Y37	Z37	X38	Y38	Z38	X39	Y39	Z39	X40	Y40	Z40	X41	Y41	Z41	X42	Y42	Z42	X43	Y43	Z43	X44	Y44	Z44	X45	Y45	Z45	X46	Y46	Z46	X47	Y47	Z47	X48	Y48	Z48	X49	Y49	Z49	X50	Y50	Z50	X51	Y51	Z51	X52	Y52	Z52	X53	Y53	Z53	X54	Y54	Z54	X55	Y55	Z55	X56	Y56	Z56	X57	Y57	Z57	X58	Y58	Z58	X59	Y59	Z59	X60	Y60	Z60	X61	Y61	Z61	X62	Y62	Z62	X63	Y63	Z63	X64	Y64	Z64	X65	Y65	Z65	X66	Y66	Z66	X67	Y67	Z67	X68	Y68	Z68	

1	0.008333	-927.538	1349.01	508.684	-776.08	1446.1	487.911	-892.611	1402.61	336.901	-827.978	1391.64	672.771	-934.873	1183.06	500.639	-663.96	1266.55	485.419	-823.0940000000001	961.739	349.306	-832.252	961.336	624.351	-628.319	1015.81	463.544	-633.789	1014.67	541.292	-633.965	1065.31	499.294	-984.046	1100.69	250.504	-0	0	0	-0	0	0	-0	0	0	-1191.3	954.3200000000001	348.977	-1165.33	947.52	387.474	-1169.49	927.857	314.663	-708.15	1074.19	761.63	-0	0	0	-0	0	0	-0	0	0	-691.624	803.91	760.2089999999999	-652.25	827.346	776.146	-696.9400000000001	819.658	717.534	-821.8390000000001	808.8630000000001	657.986	-935.972	622.2569999999999	596.237	-931.202	724.766	562.41	-0	0	0	-0	0	0	-988.11	541.592	536	-933.7619999999999	462.439	608.995	-910.212	191.842	614.2859999999999	-949.723	318.402	539.675	-0	0	0	-0	0	0	-698.549	787.0700000000001	322.101	-662.848	574.058	356.656	-764.5700000000001	612.954	393.039	-0	0	0	-0	0	0	-711.944	452.306	410.929	-0	0	0	-389.183	297.439	345.135	-527.659	333.052	410.456	-0	0	0	-0	0	0	-249.281	275.637	389.926	-412.213	34.765	396.006	-348.812	76.23950000000001	446.056	-336.718	79.1593	329.447	-273.882	170.754	340.072	-386.495	171.883	386.04	-379.788	52.9147	440.106	-374.756	53.0625	347.012	-833.996	75.86669999999999	559.383	-1131.76	73.4768	574.2	-1055.65	51.3545	521.4829999999999	-1038.36	51.1212	634.652	-930.481	43.4837	620.761	-995.87	135.84	572.127	-1096.77	54.4194	528.434	-1092.44	54.9494	625.728	-0	0	0	-631.054	1015.24	502.418	-200	0	0	-0	0	200	-0	200	0	
2	0.016667	-927.646	1350.16	509.536	-776.2859999999999	1447.59	489.076	-893.034	1403.8	338.144	-828.686	1392.74	673.682	-934.503	1184.2	501.681	-664.129	1268.11	486.33	-823.162	961.95	350.436	-832.242	963.018	625.98	-628.9059999999999	1017.26	465.595	-633.567	1015.66	541.851	-634.105	1066.53	500.047	-984.447	1102.12	251.237	-0	0	0	-0	0	0	-0	0	0	-1191.38	954.652	348.752	-1165.51	947.967	387.433	-1169.33	928.172	314.559	-713.649	1073.84	763.638	-0	0	0	-0	0	0	-0	0	0	-701.58	803.2569999999999	761.778	-662.03	826.337	778.2089999999999	-706.124	819.08	718.9450000000001	-820.3869999999999	809.538	659.128	-932.467	620.681	598.275	-930.889	723.62	564.768	-0	0	0	-0	0	0	-985.203	540.734	536.876	-929.468	462.101	609.6319999999999	-901.4640000000001	191.978	614.635	-943.331	317.982	540.026	-0	0	0	-0	0	0	-701.691	787.0359999999999	324.098	-670.575	573.451	358.191	-771.207	614.3200000000001	394.877	-0	0	0	-0	0	0	-721.05	452.201	412.032	-0	0	0	-394.622	303.157	346.067	-533.9400000000001	335.438	411.305	-0	0	0	-0	0	0	-257.459	286.865	391.155	-404.752	32.0293	395.629	-346.725	82.4738	446.579	-334.237	86.1768	330.033	-276.225	180.902	341.023	-388.979	176.167	386.486	-375.064	54.3148	439.855	-369.01	54.4865	347.213	-823.963	75.9183	559.505	-1121.78	73.0873	574.325	-1045.56	50.9949	521.515	-1028.33	50.9386	634.693	-920.49	43.4501	620.902	-986.029	135.677	572.087	-1086.68	54.0851	528.616	-1082.45	54.8111	625.88	-0	0	0	-631.237	1016.46	503.723	-200	0	0	-0	0	200	-0	200	0	
3	0.025	-927.6130000000001	1351.45	510.23	-776.325	1449.16	490.101	-893.1609999999999	1405.11	339.187	-829.162	1393.98	674.473	-934.169	1185.5	502.733	-664.155	1269.69	487.311	-822.963	963.389	351.211	-832.375	964.86	627.854	-628.857	1018.56	466.68	-633.7619999999999	1017.02	543.273	-633.932	1067.91	501.436	-984.849	1103.65	252.009	-0	0	0	-0	0	0	-0	0	0	-1191.51	955.073	348.516	-1165.68	948.526	387.211	-1169.14	928.583	314.557	-719.145	1073.67	765.566	-0	0	0	-0	0	0	-0	0	0	-711.918	802.9299999999999	763.268	-671.968	824.912	780.082	-715.741	818.818	721.146	-819.081	810.6660000000001	660.095	-928.085	618.58	600.191	-931.022	721.424	567.645	-0	0	0	-0	0	0	-981.652	539.747	537.602	-924.473	461.723	610.324	-892.627	191.905	614.6609999999999	-936.67	317.468	540.499	-0	0	0	-0	0	0	-704.903	787.308	326.104	-678.3869999999999	573.134	359.515	-777.798	615.971	396.605	-0	0	0	-0	0	0	-730.389	452.351	413.461	-0	0	0	-400.862	308.424	347.007	-540.831	337.876	412.194	-0	0	0	-0	0	0	-266.247	296.476	393.165	-397.746	30.0208	394.793	-345.552	87.6515	447.194	-332.427	92.4366	330.758	-279.086	189.942	342.433	-391.784	179.564	387.139	-371.192	55.6202	439.344	-363.547	56.23	347.124	-813.949	76.04340000000001	559.612	-1111.89	72.63120000000001	574.33	-1035.46	50.6477	521.485	-1018.31	50.666	634.674	-910.455	43.4735	620.897	-976.272	135.516	572.077	-1076.74	53.8499	528.724	-1072.5	54.4377	625.865	-0	0	0	-631.3099999999999	1017.79	504.976	-200	0	0	-0	0	200	-0	200	0	
4	0.033333	-927.511	1352.86	510.947	-776.328	1450.78	491.08	-893.106	1406.5	340.115	-829.567	1395.41	675.278	-933.826	1186.94	503.856	-664.059	1271.35	488.246	-822.784	965.16	352.172	-832.5890000000001	966.867	630.075	-628.775	1019.84	468.029	-634.054	1018.45	544.955	-633.7089999999999	1069.32	503.196	-985.217	1105.32	252.717	-0	0	0	-0	0	0	-0	0	0	-1191.69	955.5890000000001	348.291	-1165.89	949.303	386.904	-1168.97	929.079	314.6	-724.67	1073.69	767.397	-0	0	0	-0	0	0	-0	0	0	-722.627	802.859	764.705	-682.347	823.989	782.037	-725.75	818.627	722.068	-818.148	811.976	661.199	-922.931	616.354	601.877	-930.9109999999999	718.659	571.577	-0	0	0	-0	0	0	-977.595	538.708	538.253	-918.744	461.335	611.111	-883.727	191.684	614.681	-929.71	316.898	540.921	-0	0	0	-0	0	0	-708.158	787.741	328.03	-686.216	573.069	360.551	-784.474	617.846	398.036	-0	0	0	-0	0	0	-739.61	452.932	414.558	-0	0	0	-407.665	313.077	348.006	-548.124	340.139	413.008	-0	0	0	-0	0	0	-275.203	304.222	396.439	-395.269	32.1144	392.378	-347.636	92.06059999999999	447.008	-331.759	98.25320000000001	330.982	-282.345	197.729	344.608	-396.134	182.316	386.388	-370.943	58.5797	437.906	-361.084	60.4126	345.918	-803.807	76.1189	559.6559999999999	-1101.88	72.3194	574.466	-1025.28	50.3976	521.527	-1008.14	50.5104	634.717	-900.277	43.4963	620.923	-966.331	135.422	572.079	-1066.8	53.7989	528.5	-1062.46	54.2049	626.024	-0	0	0	-631.414	1019.14	506.492	-200	0	0	-0	0	200	-0	200	0	
